PathFileType	4	(X/Y/Z)	Kaydara																																																																																																																									
DataRate	CameraRate	NumFrames	NumMarkers	Units	OrigDataRate	OrigDataStartFrame	OrigNumFrames																																																																																																																					
30	30	5	41	mm	30	37	174																																																																																																																					
Frame#	Time	SALE_LFHD			SALE_RFHD			SALE_LBHD			SALE_RBHD			SALE_LFTShould			SALE_RFTShould			SALE_LRRShould			SALE_RRRShould			SALE_T10			SALE_STRN			SALE_TRUN			SALE_LSHO			SALE_LUPA			SALE_LELB			SALE_LFRM			SALE_LWRA			SALE_LWRB			SALE_LFIN			SALE_RSHO			SALE_RUPA			SALE_RELB			SALE_RFRM			SALE_RWRB			SALE_RFIN			SALE_LFWT			SALE_RFWT			SALE_LBWT			SALE_RBWT			SALE_LTHI			SALE_LKNE			SALE_RWRA			SALE_LSHN			SALE_LANK			SALE_LHEE			SALE_LTOE			SALE_RTHI			SALE_RKNE			SALE_RSHN			SALE_RANK			SALE_RHEE			SALE_RTOE		
		X1	Y1	Z1	X2	Y2	Z2	X3	Y3	Z3	X4	Y4	Z4	X5	Y5	Z5	X6	Y6	Z6	X7	Y7	Z7	X8	Y8	Z8	X9	Y9	Z9	X10	Y10	Z10	X11	Y11	Z11	X12	Y12	Z12	X13	Y13	Z13	X14	Y14	Z14	X15	Y15	Z15	X16	Y16	Z16	X17	Y17	Z17	X18	Y18	Z18	X19	Y19	Z19	X20	Y20	Z20	X21	Y21	Z21	X22	Y22	Z22	X23	Y23	Z23	X24	Y24	Z24	X25	Y25	Z25	X26	Y26	Z26	X27	Y27	Z27	X28	Y28	Z28	X29	Y29	Z29	X30	Y30	Z30	X31	Y31	Z31	X32	Y32	Z32	X33	Y33	Z33	X34	Y34	Z34	X35	Y35	Z35	X36	Y36	Z36	X37	Y37	Z37	X38	Y38	Z38	X39	Y39	Z39	X40	Y40	Z40	X41	Y41	Z41
																																																																																																																												
22	1.2	230.22894	1638.26263	-1912.3053	97.55287	1638.89801	-1912.97897	226.85946	1634.9736	-2048.63602	98.51007	1633.02505	-2042.67502	234.72332	1390.7309	-1974.0564	95.30882	1386.90002	-1974.39911	227.9837	1444.45679	-2089.17801	78.4025	1446.38763	-2081.10794	155.087	1289.85825	-2150.2002	162.78196	1319.20914	-1924.82712	162.13017	1234.86923	-1880.12314	347.56245	1417.50153	-2044.78607	392.34657	1201.08704	-2048.62793	377.50973	1089.54529	-2065.13519	407.91985	985.22232	-2031.54343	349.62784	850.58014	-1957.37274	414.05453	841.67831	-1998.60626	413.18607	801.38695	-1947.45834	-10.97766	1412.57385	-2034.57535	-39.54423	1183.99292	-2097.69531	-72.11446	1083.42911	-2057.08817	-64.06865	968.31497	-2062.47513	-90.51267	831.36826	-2015.54108	-109.00381	796.4798	-1961.19034	289.72418	970.93018	-1939.97192	10.61301	971.42532	-1960.6337	243.38608	1043.93173	-2106.34842	66.3056	1048.98743	-2120.07416	297.77454	679.35356	-2119.61746	285.97916	507.0911	-2050.28534	-55.36897	846.85791	-1953.38913	282.91159	308.31486	-2062.7832	278.50321	125.95749	-2119.15436	237.25002	75.70461	-2184.17572	243.46487	66.33279	-1953.10699	11.0603	728.88664	-2127.42706	36.48654	566.82262	-2026.94595	85.22053	373.29487	-2046.44196	38.50156	123.56071	-2116.44943	55.49828	71.29514	-1992.1759	84.08644	64.65242	-2191.12381
23	1.233	228.54893	1638.11066	-1908.36548	96.02625	1638.82553	-1909.31595	225.4851	1635.21774	-2044.84985	97.11448	1633.2045	-2039.0477	233.48953	1391.07956	-1971.01288	93.48456	1386.9014	-1971.49887	226.65182	1444.85092	-2085.66193	77.14058	1446.79169	-2077.96967	154.00668	1290.42542	-2147.34055	161.07801	1319.33975	-1921.69662	160.41819	1234.94179	-1877.258	346.26869	1418.10303	-2041.28632	391.30665	1201.84029	-2045.96359	376.70132	1090.35271	-2062.89169	407.34219	985.93155	-2029.67972	349.39709	850.80818	-1955.92621	413.84541	842.24098	-1997.2493	413.0859	801.76628	-1946.2619	-12.35942	1412.8476	-2031.7157	-40.34373	1184.59793	-2096.07925	-72.92928	1083.77022	-2056.06445	-64.76208	968.68408	-2062.0195	-90.97418	831.45302	-2016.02661	-109.70662	796.1599	-1961.78436	288.01605	971.06262	-1938.66959	8.79888	971.51405	-1959.78165	241.87742	1044.32495	-2104.80865	64.91251	1049.18221	-2118.96042	297.13902	679.60342	-2117.3259	285.24145	507.37404	-2047.83096	-56.09236	846.54938	-1953.5524	282.64236	308.13189	-2061.62079	278.73346	125.91938	-2119.17465	237.4497	75.59827	-2184.45099	243.25232	66.76212	-1953.86612	10.59328	727.62238	-2123.36655	37.98717	566.2257	-2019.25156	87.11157	371.79031	-2040.39551	39.06709	123.61146	-2114.95682	56.16912	71.5464	-1991.91208	84.39336	65.04102	-2190.76675
24	1.267	226.92646	1637.86835	-1904.1272	94.11664	1638.65753	-1905.15091	223.68759	1635.0531	-2040.72708	95.37504	1633.07388	-2034.83017	231.63666	1390.99442	-1967.07153	91.37251	1386.8428	-1967.67746	224.8735	1444.87885	-2081.39267	75.34419	1446.89758	-2074.01932	152.30356	1290.60577	-2143.64639	158.9215	1319.14398	-1917.9097	158.10781	1234.72771	-1873.43658	344.36234	1417.99911	-2036.88293	389.95277	1202.02339	-2042.73819	375.60555	1090.58281	-2060.19287	406.72832	986.1161	-2027.50183	349.3565	850.44472	-1954.21875	413.62232	842.11494	-1995.56473	413.22098	801.53214	-1944.84909	-14.27144	1412.79343	-2028.02124	-41.38759	1184.87442	-2093.84293	-74.06114	1083.76106	-2054.57779	-65.68282	968.77563	-2061.21628	-91.71394	831.16013	-2016.49307	-110.72475	795.4245	-1962.5	285.90492	970.78873	-1936.53992	6.74708	970.99037	-1957.66113	239.75744	1044.38805	-2102.4913	62.741	1048.78494	-2116.68777	295.72374	679.76631	-2114.64035	284.33155	507.53326	-2045.40985	-57.23507	845.75417	-1953.63159	282.22372	307.81713	-2060.65964	278.76699	126.02685	-2119.26636	237.53181	75.48896	-2184.77783	243.04239	67.44061	-1954.79645	10.24267	726.06117	-2118.74786	38.63987	566.09432	-2013.4877	87.90336	370.64709	-2037.1283	39.35617	123.63575	-2113.84674	56.71495	71.79457	-1991.74942	84.58671	65.27425	-2190.55862
25	1.3	224.7488	1637.32117	-1899.06219	92.12976	1638.50983	-1899.98901	221.63403	1634.26331	-2035.7016	93.248	1632.64801	-2029.68353	228.99441	1390.55191	-1962.28699	88.717	1386.1647	-1962.42035	222.27407	1444.61472	-2076.19873	72.78029	1446.74484	-2068.61252	149.6702	1290.5748	-2139.03641	156.29323	1318.39767	-1913.07831	155.38635	1233.91991	-1868.71414	341.68636	1417.44766	-2031.83075	387.96963	1201.70593	-2038.68744	374.10442	1090.29175	-2056.67068	405.80715	985.84511	-2024.70352	349.43916	849.40277	-1952.11212	413.54881	841.69113	-1993.69904	413.56377	800.85518	-1943.27454	-16.95263	1412.42645	-2022.93457	-42.87493	1184.93553	-2090.63553	-75.5703	1083.43552	-2052.50641	-66.70015	968.56934	-2059.8262	-92.79512	830.51109	-2016.60202	-112.18115	794.08562	-1963.13751	283.6759	970.38971	-1933.32916	4.49816	970.57793	-1953.85269	237.14174	1044.12125	-2099.12399	60.10396	1048.21045	-2113.01926	293.79559	679.92783	-2111.70074	282.77155	507.21855	-2042.5058	-59.27392	844.9659	-1953.0899	281.43484	307.52375	-2059.36935	278.60394	126.18197	-2119.30878	237.48505	75.4169	-2185.10864	243.05624	68.33369	-1955.90622	8.57524	725.73563	-2115.16022	37.3425	565.33642	-2010.98969	87.35532	370.31326	-2035.54962	39.06538	123.48939	-2113.84964	57.20416	72.17661	-1992.20032	84.40649	65.16202	-2190.85724
26	1.333	223.24436	1637.3642	-1893.90411	89.72771	1638.31345	-1893.81302	218.88725	1633.12637	-2029.49768	90.5687	1632.00012	-2023.52371	225.4384	1389.74228	-1955.71609	85.71228	1385.54184	-1955.94391	218.91567	1444.38049	-2070.05692	69.41451	1446.67587	-2061.96091	146.06666	1290.64178	-2133.3905	153.27608	1317.48062	-1907.2673	152.50117	1232.75826	-1863.18344	338.39294	1416.90903	-2026.06079	385.20447	1201.41197	-2033.99307	371.86954	1090.00572	-2052.37106	404.8098	985.94032	-2022.23709	349.33796	848.26736	-1949.63852	413.16677	841.35132	-1991.6864	413.87638	800.16853	-1941.59546	-20.29933	1412.14066	-2016.30417	-45.14979	1185.02831	-2085.88928	-77.49457	1083.09746	-2049.12369	-68.00785	968.37387	-2057.31735	-94.20272	829.73282	-2016.16226	-113.98463	792.47528	-1963.4729	280.84837	969.88922	-1928.87543	1.76261	970.12024	-1949.0242	234.1267	1043.78403	-2094.55673	56.92541	1047.84462	-2108.18619	291.46809	679.95354	-2107.87704	280.55555	506.77338	-2039.34753	-61.56422	843.40096	-1951.78558	280.24382	307.17907	-2057.53616	278.19527	126.41406	-2119.3924	237.39332	75.31922	-2185.45197	242.99583	69.45968	-1957.21725	5.71877	725.88844	-2111.86478	34.93088	564.61613	-2009.32632	86.02412	370.16335	-2034.24179	38.26337	123.15469	-2113.97949	57.08088	72.16221	-1992.50702	83.88764	64.7594	-2191.20697
